<?xml version="1.0" encoding="UTF-8"?>
<!-- Generator: Adobe Illustrator 27.0.0, SVG Export Plug-In . SVG Version: 6.00 Build 0)  -->
<svg xmlns="http://www.w3.org/2000/svg" xmlns:xlink="http://www.w3.org/1999/xlink" version="1.1" id="Layer_1" x="0px" y="0px" viewBox="0 0 46.9 48.62" style="enable-background:new 0 0 46.9 48.62;" xml:space="preserve">
<style type="text/css">
	.st0{fill:#A1A1A4;}
	.st1{fill:#1D1160;}
	.st2{fill:#008DA8;}
	.st3{fill:#FFFFFF;}
</style>
<g id="Layer_2_00000060011733689357043280000000171628916470866878_">
	<g id="Layer_3">
		<path class="st0" d="M41.51,23.71l-0.15-0.09L27.82,12.35l3.43,5.17l5.32,5.14c-0.52,0.11-1.02,0.31-1.46,0.6    c-1.33-1.53-3.2-2.5-5.22-2.69c-0.74,0-1.45,0.27-2,0.76C17.25,11.81,2.56,0.99,2.41,0.86L1.23-0.01l0.26,1.44    c0,0,0.5,2.74,1.37,6.14L1.2,6.66L0,5.99L0.36,7.3c1.26,4.39,2.86,8.68,4.78,12.83c1.33,3,5.13,6.21,11,7.12    c3.02,0.46,6.06,0.75,9.11,0.85c0.06,0.53,0.19,1.06,0.38,1.56c-1.45,0.26-2.8,0.93-3.88,1.94c-2.84,2.67-3.18,7.06-0.79,10.14    c3.54,4.37,8.86,6.9,14.48,6.88c1.06,0,2.13-0.08,3.18-0.24l2-0.3l-1.8-0.79c-1.38-0.62-5-2.54-6.11-4.37    c1.34-1.29,2.1-3.07,2.11-4.93c0.05-2.25-0.78-4.43-2.31-6.07c0.85-0.12,1.69-0.34,2.49-0.66c0.98,1.19,2.24,2.13,3.66,2.73    l0.7,0.22c2.82,0.61,5.1,2.67,6,5.41l0.67,1.69l0.44-1.77C46.47,39.47,49.08,28.6,41.51,23.71z"></path>
		<path class="st1" d="M41.19,24.2l-0.17-0.11l-10.51-8.75l1.23,1.86l5.66,5.44l1.1,0.56c-1.22-0.25-2.49,0.06-3.46,0.85    c-1.27-1.63-3.14-2.68-5.19-2.9c-0.78,0.03-1.51,0.4-2,1C17.12,12.42,2.07,1.33,2.07,1.33s0.6,3.39,1.7,7.41    C2,7.74,0.92,7.17,0.92,7.17c1.25,4.37,2.84,8.63,4.75,12.75c1.33,3,5.3,5.94,10.57,6.78c3.16,0.47,6.35,0.76,9.55,0.86    c0.04,0.91,0.28,1.79,0.7,2.6c-3.85,0.3-6.74,3.66-6.44,7.52c0.11,1.36,0.61,2.66,1.44,3.74c4.11,5.08,10.65,7.53,17.09,6.4    c0,0-5.51-2.47-6.61-5l0.35-0.29c2.82-2.64,2.45-7.38-0.2-10.17c-0.32-0.33-0.67-0.64-1.05-0.91c1.41-0.03,2.81-0.33,4.1-0.9    c0.95,1.32,2.24,2.36,3.73,3c1.4,0.51,5,0.88,7,6C45.88,39.44,48.5,28.92,41.19,24.2z"></path>
		<path class="st2" d="M34.35,24.83c-0.76-1.04-1.8-1.84-3-2.31c0.99,1.14,1.81,2.43,2.42,3.81C33.85,25.79,34.05,25.28,34.35,24.83    z M5.31,7.73c10.77,7.79,20.21,14.66,24.41,17.72c-7.9-7.26-16.31-13.94-25.17-20C5.28,7.99,5.31,7.73,5.31,7.73z"></path>
		<path class="st3" d="M9.41,13.93l20.57,12.59l2.08,0.63c0,0-12.16-8.86-26.75-19.42c0,0,0.77,2,1.8,4.77l-3.38-1.93l0.85,2.25    c0.67,2.24,1.53,4.42,2.57,6.52c2.83,4.22,8.24,5,8.24,5l8,1.18l0.7,0.17L9.41,13.93z"></path>
		<path class="st2" d="M29.37,39.65c0.01-0.52-0.22-1.02-0.62-1.36c-1.28-1.05-2.39-2.3-3.27-3.71c-0.76,0.6-1.35,1.39-1.7,2.3    c-0.16,0.39-0.28,0.8-0.35,1.22c1.7,1.15,3.75,1.7,5.8,1.55H29.37z M26.73,41.5c0.98-0.01,1.89-0.48,2.46-1.27    c-2.01,0.13-4.02-0.3-5.81-1.24c0,0.67,0.15,1.33,0.44,1.94C24.71,41.4,25.73,41.6,26.73,41.5z"></path>
		<path class="st2" d="M29.22,44.85c0.6-0.71,1.53-1.05,2.45-0.88c-0.35-0.43-0.6-0.93-0.74-1.47c0.23-0.14,0.44-0.3,0.63-0.49    c2.09-2,2.05-5.49,0.45-7.87c-0.44-0.28-0.92-0.48-1.43-0.61c3.08,4.72,0.42,8.26,0.42,8.26h-0.07c1.34-2.86,0.71-6.25-1.58-8.43    c-1.18-0.07-2.35,0.24-3.34,0.87c0.77,2,4.47,3.66,4.14,5.72c-0.15,1-1.2,2.78-5.58,2.06c0.94,1,2.58,1.6,5.42,0.8    c-0.55,0.51-1.19,0.91-1.89,1.18C28.44,44.25,28.82,44.55,29.22,44.85z"></path>
		<path class="st3" d="M33.06,45.34c-0.1-0.02-0.19-0.06-0.28-0.1c-0.55-0.32-1.25-0.14-1.57,0.41c-0.08,0.13-0.13,0.28-0.15,0.43    c1.87,0.82,3.87,1.32,5.91,1.49C35.59,46.97,34.28,46.22,33.06,45.34z"></path>
		<path class="st2" d="M41.23,25.49c-0.64-0.47-1.34-0.85-2.09-1.12c-4-0.82-4.31,4.94,1.14,7.86c2.21,0.46,4.06,1.95,5,4    C45.28,36.23,46.23,29.18,41.23,25.49z"></path>
		<path class="st1" d="M44.48,34.09c-0.1-2.17-0.84-4.26-2.13-6c-2-2.41-4.41-3-4.6-2.11c0,0,1.13-0.18,2.55,1.39    c0,0-1.85,3.29,2.75,4.43c0.19,0.04,0.38,0.06,0.57,0.05C43.98,32.56,44.27,33.31,44.48,34.09z"></path>
		<path class="st3" d="M42.28,29.44c0.31,0.45,0.59,0.92,0.82,1.41C43.1,30.85,41.41,31.3,42.28,29.44z"></path>
	</g>
</g>
</svg>
