<?xml version="1.0" encoding="UTF-8"?>
<svg xmlns="http://www.w3.org/2000/svg" id="Layer_1" data-name="Layer 1" viewBox="0 0 320.29 268.67">
  <defs>
    <style>
      .cls-1 {
        fill: #562d83;
      }

      .cls-1, .cls-2 {
        fill-rule: evenodd;
      }

      .cls-2 {
        fill: #fdb722;
      }
    </style>
  </defs>
  <path class="cls-1" d="M145.05,43.35c-3.16-4.11-6.82-5.71-7-13-.13-5.36,9.96-24.2,19.09-28.15,7.65-3.3,25-1.85,37.91-1.85h41c22.84,0,73.08-3.42,70,11-1.47,6.87-4,13-6.69,17.52-2.03,3.4-6.72,12.61-10.31,13.48-15.23,3.66-40.35-6.6-45,13,23.11,17.38,38.44,59.82,26.14,99.88,.18,.85,5.63-5.56,6.88-6.51,7.17-5.12,43.24-7.31,43.22,8.44,0,10.1-8.64,20.33-14.24,29.19-11.57,18.29-21,35.58-34,56-4.06,6.38-13.68,23.96-20,25-11.27,1.85-46.36,1-66,1H54.05c-23.27,0-52.04,3.38-54-12-1.03-8.11,15.64-32.03,21.98-35.52,8.4-4.63,21.7,1.46,32.02-1.48,6.77-1.93,12.13-13.95,17-22,5.57-9.2,14.03-21.42,14.03-24.63,0-4.11-4.61-14.76-4.87-24.94-1.34-53.62,28.2-88.27,64.84-104.44Z"></path>
  <path class="cls-2" d="M228.05,199.1c11.46-11.54,25.17-21.58,30-39.17-1.62-1.25-3.25-2.17-4.58-3.17-4.58,15.75-17.25,31.25-25.42,42.33Z"></path>
  <path class="cls-2" d="M258.05,138.35h6c.16,7.16-2.34,11.66-4,17-2.17-1.25-3.75-2.38-5-3,1.75-5.38,2.25-7.92,3-14Z"></path>
  <path class="cls-2" d="M311.72,156.73c-3.7-6.16-17.43-3.45-27.67-3.37-18.6,19.07-33,34.33-53,51.17-34.83,27.83-48.36,23-100,22.83,2.99-5.01,5.83-11.83,8.67-14,20.83,7.83,49.4,7.18,66.5-2.33,17.35-9.66,38.18-38.31,42.96-55.85-34.05,17.62-56.15,54.83-107.12,52.19,.9-1.7,1.28-3.68,3-3.83,3.75-.33,10.9-.45,15-1.17,34.77-6.08,54.88-34.24,81-50,4.17-1.42,5.78-2.22,10-2,.75-2.69,2.5-6.44,2-12-22.67-.67-50.12,.62-69.08,.04,1.57-1.54,2.3-4.02,3.58-4.25,5.08-.92,20.23-.79,29.5-.79h37v-15c-13.22-1.12-22.48-5.39-30.94-10.75-4.22-2.67-10.56-8.12-12.81-10.81,.75-1.25,1.94-2.31,2.75-3.56,9.38,7.94,20.34,19.79,41,20.12-2.64-22.69-12.32-38.35-22-54,7.13-13.62,13-20.46,23.58-23.79,5.33-.75,18.83,.46,30.42-.21,2.67-8.42,11.67-14.79,11-24-.04-4.54-20.14-3.12-32.08-3.12-23.16,0-46.62,.12-69.92,.12-12.51,0-32.09-.92-35,0-5.9,1.87-16.57,22.76-14,25,3.13,5.36,32.79-.33,32,3-1.62,3.05-3.03,6.31-5,9-21.2,2.47-36.59,10.75-49,22h96c-2.86,5.81-5.69,11.64-10,16h-53c2.49-3.84,4.85-7.81,7-12h-45c-5.66,4.67-10.67,9.99-14,17,33.67,.67,70-1.33,102,1-3.4,4.94-5.35,11.31-10,15h-52c-.5-4.5,8.4-9.15,4-11h-48c-2.54,5.13-4.8,10.54-7,16h101c-4.24,6.09-7.35,13.32-12,19h-53c.82-4.73,9.51-11.53,6-14-14.67,0-28.24,.04-42.91,.04-.75,2.59-2.8,11.32-3.09,18.96h90c-17.72,33.28-40.76,61.24-56,97,1,1.17,1.8,2.06,3.5,2.17,22,1.33,48.91,2.04,62.5-.17,12.54-2.04,31.96-13.19,48.67-26.17,10.61-8.24,19.44-17.08,27.33-24.83,10-9.83,19-21.62,19-21.62,0,0,16-.12,21-.38-18.87,32.8-39.21,64.13-60,95-77-.67-156.67,1.33-232-1,5.23-6.1,9.05-13.61,14-20,9.52,.27,23.22,.34,28.59-.22,11.3-1.18,17.55-14.49,24.41-25.78,14.07-23.15,31.16-49.08,43-70-11.67,0-22.37,.01-34.04,.01,.4,13.27,2.19,24.16,6.04,33.99-11.96,16.18-25.38,50.75-40.28,55.57-4.29,.5-22.05,.56-30.72,.43-4.87,7.02-19.27,22.8-16,30,1.76,4.91,18.06,3,27,3H249.05c17.61-24.25,34.23-51.65,50-77,6.73-10.82,15.25-20.24,12.67-26.63ZM170.05,62.35c2-4.06,12.88-20.69,13.72-28.93-1.07-6.84-19.87-3.25-30.72-4.07,2.25-5.75,4.79-11.21,9-15h128c2.73,2.63-5.59,10.91-8,15-9.46,.08-23.87-.04-27.96,.21-16.29,3.17-22.85,18.98-30.25,32.67-17.67,0-36.13,.12-53.79,.12Z"></path>
  <path class="cls-2" d="M264.71,114.19c1.67,4.25,.75,12.75,.33,19.17h-6v-16c1.75-.5,4.17-2,5.67-3.17Z"></path>
  <path class="cls-2" d="M246.05,72.35c5.5,4.88,16.15,22.81,17.92,38.08-1.75,1.08-3.25,1.83-5.17,2.33-3.82-14.18-6.66-28.51-12.75-40.42Z"></path>
</svg>
