<svg xmlns="http://www.w3.org/2000/svg" xmlns:xlink="http://www.w3.org/1999/xlink" version="1.1" id="Layer_1" x="0px" y="0px" style="enable-background:new 0 0 50 50;" xml:space="preserve" viewBox="7.27 13.88 27.65 20.25">
<style type="text/css">
	.st0{fill:#0050B5;stroke:#000000;stroke-width:0.25;stroke-miterlimit:10;}
	.st1{fill:#FFFFFF;}
	.st2{fill:#0050B5;}
</style>
<path class="st0" d="M14.9,18.1v-2.6l-1.7,2.6h-2.4l1.5,1.4l-1.9,2.9l3-1.8l1.5,1.4v-2.3l2.8-1.7H14.9z"/>
<path class="st0" d="M11.5,25v-2.4L9.9,25H7.7l1.4,1.3l-1.7,2.7l2.8-1.6l1.3,1.3v-2.1l2.6-1.5H11.5z"/>
<path class="st0" d="M26,16.1c-1.2,0-2.3,0.2-3.4,0.7l-0.1,0.1V14l-2,3.2h-3l1.8,1.7l-0.8,1.2V19l-2.3,3.6h-3.4l2.1,2l-2.5,3.9  l4-2.4l0.8,0.8l0,0c0.1,0.3,0.1,0.5,0.2,0.7l0,0.1H15l1.8,1.7l-2.2,3.4l3.7-2.1c0.1,0,0.1,0,0.1,0c0.1,0,0.2,0.1,0.3,0.1  c0,0,0.1,0.1,0.2,0.2c0.2,0.1,0.4,0.3,0.4,0.3c0.8,0.6,2.1,1.6,3.5,2.1c1,0.4,2,0.6,3.1,0.6c4.9,0,8.9-4,8.9-8.9S30.9,16.1,26,16.1"/>
<path class="st1" d="M14.4,19.5l1.5-0.9h-1.5v-1.5l-0.9,1.5H12l0.9,0.9l-1,1.5l1.6-0.9l0.9,0.9V19.5z"/>
<path class="st1" d="M11,24.1l-0.8,1.3H8.8l0.8,0.8l-0.9,1.3l1.4-0.8l0.8,0.8v-1.3l1.4-0.8H11V24.1z"/>
<path class="st1" d="M26,16.6c-1.4,0-2.8,0.4-4.1,1.1V16l-1.1,1.8H19l1.1,1.1l-1.2,1.8l0,0c-0.4,0.6-0.7,1.3-0.9,2v-1.8l-1.5,2.3  h-2.4l1.5,1.4l-1.5,2.4l2.5-1.5l1.3,1.2c0.1,0.5,0.2,0.9,0.4,1.4l-0.1,0.3h-1.6l1.1,1l-1.2,1.9l1.6-1c0.4-0.2,0.7-0.2,1.1,0.1  c0,0,0,0,0.1,0.1c1.7,1.5,3,2.1,3.9,2.5c1,0.4,1.9,0.5,2.9,0.5c4.6,0,8.3-3.7,8.3-8.4S30.6,16.6,26,16.6"/>
<path class="st2" d="M30,22.2c-0.6-2.2-2.1-3.9-4-4.5c-0.8-0.2-1.6-0.2-2.4,0.1c-1.2,0.4-2.3,1.1-3.2,2.1c0.6-0.3,1.3-0.6,2-0.6  C25.6,19.3,27.7,22,30,22.2"/>
<path class="st2" d="M30.9,22.2c1.1-0.2,1.6-1,1.2-1.7c-1.2-1.7-3.1-2.8-5.3-3C28.8,18.1,30.2,20,30.9,22.2"/>
<path class="st2" d="M30.2,26.9c0.1-0.5,0.1-1,0.2-1.5c-4.5-0.1-10.9-0.2-10.9-0.2v-0.3c0,0,6.5-0.2,10.9-0.2c0-0.5-0.1-1-0.2-1.5  c-2.9-0.2-5-3.1-8-3.1c-1.6,0-2.7,0.9-3.2,2.3c-0.3,0.8-0.5,1.7-0.5,2.7c0,0.9,0.2,1.9,0.5,2.7c0.6,1.4,1.6,2.3,3.2,2.3  C25.2,30,27.3,27.1,30.2,26.9z"/>
<path class="st2" d="M31.2,24.6c0.9,0,1.8,0,2.3,0c-0.1-1.1-0.3-2.1-0.8-3.1c0,0.7-0.6,1.4-1.7,1.5C31.1,23.6,31.2,24.1,31.2,24.6z"/>
<path class="st2" d="M30,27.8c-2.3,0.2-4.5,2.9-7.5,2.9c-0.7,0-1.5-0.2-2-0.6c0.1,0.2,0.3,0.3,0.5,0.5c0.8,0.7,1.8,1.3,2.9,1.7  c0.7,0.2,1.4,0.2,2.1,0.1C27.9,31.8,29.4,30,30,27.8"/>
<path class="st2" d="M30.9,27.8c-0.6,2.2-2.1,4.1-4,4.7c2.2-0.2,4.1-1.4,5.3-3.1C32.5,28.7,32,28,30.9,27.8"/>
<path class="st2" d="M33.6,25.4c-0.6,0-1.4,0-2.3,0c0,0.5-0.1,1-0.2,1.6c1.1,0.2,1.7,0.8,1.7,1.5C33.2,27.5,33.5,26.5,33.6,25.4  C33.6,25.4,33.6,25.4,33.6,25.4z"/>
</svg>