<?xml version="1.0" encoding="UTF-8"?>
<!-- Generator: Adobe Illustrator 27.0.0, SVG Export Plug-In . SVG Version: 6.00 Build 0)  -->
<svg xmlns="http://www.w3.org/2000/svg" xmlns:xlink="http://www.w3.org/1999/xlink" version="1.1" id="Layer_1" x="0px" y="0px" viewBox="0 0 83.06 102" style="enable-background:new 0 0 83.06 102;" xml:space="preserve">
<style type="text/css">
	.st0{filter:url(#Adobe_OpacityMaskFilter);}
	.st1{fill-rule:evenodd;clip-rule:evenodd;fill:#FFFFFF;}
	.st2{mask:url(#mask-2_00000093151014529253529470000002987894751794102945_);fill-rule:evenodd;clip-rule:evenodd;fill:#006AB6;}
	.st3{filter:url(#Adobe_OpacityMaskFilter_00000093145940301002113640000007724213555551485595_);}
	.st4{mask:url(#mask-4_00000149346950575701016410000008251784140581376686_);fill-rule:evenodd;clip-rule:evenodd;fill:#EC174B;}
	.st5{fill-rule:evenodd;clip-rule:evenodd;fill:#006AB6;}
</style>
<g id="PHI">
	<g id="Group" transform="translate(33.000000, 24.000000)">
		<g id="Group-3" transform="translate(38.631604, 37.187500)">
			<g id="Clip-2">
			</g>
			<defs>
				<filter id="Adobe_OpacityMaskFilter" x="-32.9" y="-23.96" width="44.33" height="64.64">
					<feColorMatrix type="matrix" values="1 0 0 0 0  0 1 0 0 0  0 0 1 0 0  0 0 0 1 0"></feColorMatrix>
				</filter>
			</defs>
			
				<mask maskUnits="userSpaceOnUse" x="-32.9" y="-23.96" width="44.33" height="64.64" id="mask-2_00000093151014529253529470000002987894751794102945_">
				<g class="st0">
					<polygon id="path-1_00000060713668012620213950000018013916489193820857_" class="st1" points="-32.9,-23.96 11.43,-23.96        11.43,40.69 -32.9,40.69      "></polygon>
				</g>
			</mask>
			<path id="Fill-1" class="st2" d="M-10.52,34.33c-4.85,0-4.65-6.21-4.65-13.38c0-7.17,0.68-13.37,4.65-13.37     c4.87,0,5.13,6.2,5.13,13.37C-5.39,28.11-6.39,34.33-10.52,34.33 M-4.49-0.84c-4.34,0-8.79,1.73-11.13,5.37h-0.08h-0.09h0.09     l0.44-6.29c0.25-4.25,1.22-15.81,7.12-15.81c2.84,0,2.2,3.76,2.52,5.47c0.78,4,2.53,8.59,8.01,8.59c3.74,0,7.65-2.47,7.65-7.53     c0-7.79-6.52-12.91-14.44-12.91c-20.33,0-28.49,15.5-28.49,34.27c0,16.3,6.34,30.37,23.8,30.37c11.34,0,20.53-8.06,20.53-21.6     C11.43,7.65,5.37-0.84-4.49-0.84"></path>
		</g>
		<g id="Group-6" transform="translate(0.000000, 36.125000)">
			<g id="Clip-5">
			</g>
			<defs>
				
					<filter id="Adobe_OpacityMaskFilter_00000024713102272727152840000001905983839667803527_" x="-33" y="-23.92" width="46.16" height="65.8">
					<feColorMatrix type="matrix" values="1 0 0 0 0  0 1 0 0 0  0 0 1 0 0  0 0 0 1 0"></feColorMatrix>
				</filter>
			</defs>
			
				<mask maskUnits="userSpaceOnUse" x="-33" y="-23.92" width="46.16" height="65.8" id="mask-4_00000149346950575701016410000008251784140581376686_">
				<g style="filter:url(#Adobe_OpacityMaskFilter_00000024713102272727152840000001905983839667803527_);">
					<polygon id="path-3_00000181788709317212753210000014412658281846629556_" class="st1" points="-33,-23.92 13.16,-23.92        13.16,41.88 -33,41.88      "></polygon>
				</g>
			</mask>
			<path id="Fill-4" class="st4" d="M-33-23.23V0.97c13.56,2,29.75,0.67,41.19-16.05c0.48-0.71,0.76-0.21,0.45,0.41     C5.45-8.17-2.11-2.16-8.65,2.97c-6.28,4.92-23.13,22.59-22.91,38.12c0.02,1.19,0.05,0.87,1.1,0.09     c5.12-3.79,15.13-3.91,21.28-0.97c0.86,0.4,0.93,0.28,0.83-0.83c-1.18-12.04,1.53-25.2,6.7-32.83     c3.56-5.29,13.13-18.91,14.78-29.59c0.17-1.11-0.4-0.94-1.78,0.52C0.5-11.07-19.12-11.35-31.78-23.48     C-32.57-24.25-32.93-23.91-33-23.23"></path>
		</g>
		<g id="Group-9" transform="translate(20.024639, 0.000000)">
			<g id="Clip-8">
			</g>
		</g>
		<polygon id="Fill-7" class="st5" points="-9.49,-24 -8.71,-21.53 -6.09,-21.53 -8.22,-19.98 -7.44,-17.56 -9.49,-19.04     -11.57,-17.56 -10.79,-19.99 -12.91,-21.53 -10.29,-21.53   "></polygon>
		<polygon id="Fill-10" class="st5" points="6.04,-14.97 6.84,-12.52 9.47,-12.52 7.33,-10.96 8.12,-8.54 6.05,-10.04 3.98,-8.54     4.78,-10.96 2.62,-12.52 5.26,-12.52   "></polygon>
		<polygon id="Fill-12" class="st5" points="-0.7,-21.88 0.08,-19.41 2.72,-19.41 0.59,-17.86 1.36,-15.43 -0.7,-16.94     -2.76,-15.43 -1.98,-17.87 -4.11,-19.41 -1.49,-19.41   "></polygon>
		<polygon id="Fill-14" class="st5" points="8.51,-6.47 9.3,-4.01 11.92,-4.01 9.8,-2.46 10.57,-0.03 8.52,-1.54 6.46,-0.03     7.25,-2.46 5.1,-4.01 7.71,-4.01   "></polygon>
		<polygon id="Fill-16" class="st5" points="7.44,2.56 8.23,5.02 10.86,5.02 8.72,6.58 9.51,9.01 7.45,7.51 5.4,9.01 6.16,6.57     4.04,5.02 6.66,5.02   "></polygon>
		<polygon id="Fill-18" class="st5" points="2.5,9.65 3.27,12.11 5.91,12.11 3.78,13.66 4.55,16.08 2.51,14.59 0.44,16.08     1.22,13.66 -0.93,12.11 1.71,12.11   "></polygon>
		<polygon id="Fill-20" class="st5" points="-5.48,13.72 -4.69,16.18 -2.08,16.18 -4.21,17.74 -3.42,20.17 -5.48,18.67 -7.54,20.17     -6.77,17.73 -8.9,16.18 -6.28,16.18   "></polygon>
		<polygon id="Fill-22" class="st5" points="-25.16,-15.85 -25.95,-13.4 -28.57,-13.4 -26.45,-11.84 -27.23,-9.42 -25.17,-10.92     -23.1,-9.42 -23.88,-11.84 -21.74,-13.4 -24.37,-13.4   "></polygon>
		<polygon id="Fill-24" class="st5" points="-18.78,-21.88 -19.57,-19.41 -22.19,-19.41 -20.06,-17.86 -20.84,-15.43 -18.78,-16.94     -16.71,-15.43 -17.49,-17.87 -15.36,-19.41 -17.99,-19.41   "></polygon>
		<polygon id="Fill-26" class="st5" points="-28.18,-7.53 -28.95,-5.08 -31.58,-5.08 -29.44,-3.54 -30.22,-1.1 -28.18,-2.59     -26.11,-1.1 -26.89,-3.54 -24.74,-5.08 -27.36,-5.08   "></polygon>
		<polygon id="Fill-28" class="st5" points="-27.45,1.32 -28.25,3.79 -30.87,3.79 -28.74,5.35 -29.51,7.78 -27.46,6.27 -25.4,7.78     -26.19,5.34 -24.05,3.79 -26.68,3.79   "></polygon>
		<polygon id="Fill-30" class="st5" points="-22.5,8.76 -23.28,11.22 -25.91,11.22 -23.78,12.78 -24.57,15.2 -22.5,13.7     -20.42,15.2 -21.22,12.77 -19.08,11.22 -21.71,11.22   "></polygon>
		<polygon id="Fill-32" class="st5" points="-14.7,13.36 -15.49,15.83 -18.11,15.83 -15.98,17.38 -16.76,19.8 -14.72,18.32     -12.63,19.8 -13.43,17.37 -11.28,15.83 -13.91,15.83   "></polygon>
	</g>
</g>
</svg>
