<?xml version="1.0" encoding="UTF-8"?>
<svg xmlns="http://www.w3.org/2000/svg" xmlns:xlink="http://www.w3.org/1999/xlink" id="Layer_2" data-name="Layer 2" viewBox="0 0 53.5 59.17">
  <defs>
    <style>
      .cls-1 {
        fill: none;
      }

      .cls-2 {
        clip-path: url(#clippath);
      }

      .cls-3 {
        fill: #fff;
      }

      .cls-4 {
        fill: #63717a;
      }

      .cls-5 {
        fill: #5a2d82;
      }
    </style>
    <clipPath id="clippath">
      <rect class="cls-1" width="53.5" height="59.17"></rect>
    </clipPath>
  </defs>
  <g id="Layer_1-2" data-name="Layer 1">
    <g class="cls-2">
      <path class="cls-3" d="M53.11,22.14c-.51-.63-3.37-3.31-8.03-5.3,.06-.12,.78-1.71,.78-1.71l-1.5-.69s-3.62-1.58-7.81-2.78V.05l-4.2,4.2-2.91-3-2.91,2.92-2.83-2.92-3,3-2.91-3-2.91,2.92L10.63,0V14.96C4.22,19.31,0,26.66,0,34.98,0,48.32,10.84,59.17,24.18,59.17c.03,0,.06,0,.09,0,.03,0,.07,0,.1,0,13.33,0,24.18-10.85,24.18-24.19,0-.69-.04-1.38-.1-2.06,1.13-.29,2.11-1,2.85-2.07,2-2.95,2.19-7.43,2.2-7.61l.02-.62-.39-.48Z"></path>
      <path class="cls-5" d="M37.77,18.84c-3.23-1.96-6.27-1.96-6.27-1.96,1.88,.54,2.92,1.46,2.92,1.46-.65,.15-1.85,.85-1.85,.85,4.46,.92,5.92,3.04,5.92,3.04-.19-1.42-1.23-2.69-1.23-2.69,.19-.15,.5-.69,.5-.69"></path>
      <path class="cls-5" d="M42.94,17.72c.38-.65,.89-1.78,.89-1.78-.12-.06-4.29-1.86-8.78-3.03V4.07l-4.76,4.76h-1.31l2.87-2.88-2.42-2.34-2.91,2.91-2.83-2.91-5.04,5.21h-1.31l2.88-2.88-2.43-2.34-2.91,2.91-2.42-2.51v12.17s0,0,0,0h.01s-7.1,6.91-2.15,13.71c4.59,6.31,20.35,10.23,20.35,19.88,0,1.08-.27,2.12-.7,3.08,0,0-.01,.03-.07,.16-.81,1.75-2.12,3.22-3.21,4.2,.29-.03,.58-.06,.87-.11,.74-.11,1.47-.25,2.18-.43,3.8-2,6.36-5.74,5.7-10.24-.96-6.51-5.97-9.54-13.14-13.79-.68-.4-1.28-.81-1.81-1.23-4.07-2.79-7.98-6.92-3.39-12.6,0,0-2.62,5.26,3.44,10.32,5.56,4.28,15.01,7.21,16.52,16.73,.63,3.96-.22,6.65-1.58,8.49,7.55-4.38,12.11-12.98,10.93-22.13,.32-.21,.7-.49,1.07-.81,1.1-.02,1.98-.6,2.58-1.49,1.76-2.58,1.91-6.74,1.91-6.74-.22-.28-3.38-3.47-9.05-5.45m5.46,7.77c1.15,.85,.2,2.56-.23,3.31-.44,.74-1.46,.2-1.46,.2-.36,.64-1.72,1.51-1.72,1.51,.21-.69,.15-2.13,.15-2.13-4.08-2.26-6.05,.62-6.87,1.57-.55,.64,.08,2.39,.92,3.67,.84,1.28,3.56-.92,3.56-.92,0,1.18-.92,2.49-.92,2.49,0,0,1.09,.83,.36,3.08-.87,2.69-3.47,4.04-3.47,4.04,1.18-2.98-1.82-5.48-1.82-5.48-7.24-5.68-2.72-8.26-2.72-8.26,0,0-6.31-1.18-8.87-5.28-2.56-4.11-.15-6-.15-6-1-2.18-3.26-1.75-3.26-1.75,1.08,1.36,1.08,3.21,1.08,3.21-4.9-2.28-2.38-5.34-.13-5.29,2.26,.05,4.05,1.85,4.05,1.85,0,0,1.9-1.49,5.79-.67,4.95,1.04,8.1,2.49,8.1,2.49-.2,.64-.87,1.98-.87,1.98,7.08,2,9.1,4.51,9.1,4.51-.92-.08-2.9-.58-2.9-.58-.31,1.64,1.1,1.62,2.26,2.46"></path>
      <path class="cls-4" d="M27.82,52.86c-4.69-.5-15.76-2.49-21.81-10.48-2.3-3.04-3.61-6.6-3.93-10.66-.32,2.13-.35,4.34-.02,6.58,1.6,10.87,10.01,19.15,20.51,19.55,1.46-.73,3.94-2.3,5.25-4.99"></path>
      <path class="cls-4" d="M28.49,50.91c.08-.39,.15-.79,.18-1.22,.38-5.16-7.58-9.27-14.71-13.86-6.96-4.48-8.74-9.53-6.63-15.01-1.4,1.59-3.25,4.32-3.31,7.75-.41,5.24,.62,9.17,3.44,12.62,6.07,7.41,17.22,9.29,21.03,9.72"></path>
    </g>
  </g>
</svg>
